# xmcd
#
# Track frame offsets: 
#        150
#        13177
#        26229
#        54004
#        67985
#        83116
#        117243
#        133303
#        154373
#        172270
#        183731
#        199021
#
# Disc length: 2788 seconds
#
# Revision: 0
# Processed by: cddbd v1.5.2PL0 Copyright (c) Steve Scherf et al.
# Submitted via: ExactAudioCopy v0.99pb4
#
DISCID=ab0ae20c
DTITLE=Voodoo Boogie - Losing My Cool
DYEAR=2008
DGENRE=Blues
TTITLE0=Who Will Be Next
TTITLE1=Losing My Cool
TTITLE2=The Voodoo Boogie
TTITLE3=Cocaine Jill
TTITLE4=Bottle Of Love
TTITLE5=I Gave You Love
TTITLE6=Going Down South
TTITLE7=Walking The Boogie
TTITLE8=Party Man
TTITLE9=Dance With Me
TTITLE10=The Whale Has Swallowed Me
TTITLE11=Boogiematic
EXTD=
EXTT0=
EXTT1=
EXTT2=
EXTT3=
EXTT4=
EXTT5=
EXTT6=
EXTT7=
EXTT8=
EXTT9=
EXTT10=
EXTT11=
PLAYORDER=
